<?xml version="1.0" standalone="no"?>
<!DOCTYPE svg PUBLIC "-//W3C//DTD SVG 20010904//EN"
 "http://www.w3.org/TR/2001/REC-SVG-20010904/DTD/svg10.dtd">
<svg version="1.0" xmlns="http://www.w3.org/2000/svg"
 width="527.000000pt" height="527.000000pt" viewBox="0 0 527.000000 527.000000"
 preserveAspectRatio="xMidYMid meet">
<metadata>
Created by potrace 1.14, written by Peter Selinger 2001-2017
</metadata>
<g transform="translate(0.000000,527.000000) scale(0.100000,-0.100000)"
fill="#000000" stroke="none">
<path d="M3445 5119 c-13 -38 -134 -473 -132 -475 4 -5 352 -103 354 -100 2 1
32 106 68 232 36 126 67 234 70 240 2 7 -60 30 -163 59 -92 26 -173 50 -179
52 -7 3 -15 -1 -18 -8z"/>
<path d="M3129 4535 c-14 -8 -33 -25 -41 -37 -18 -27 -178 -584 -178 -618 0
-36 31 -90 60 -105 16 -8 140 -46 277 -85 220 -63 252 -70 284 -61 67 20 75
39 165 353 46 161 84 304 84 318 0 35 -34 86 -67 103 -45 23 -489 147 -525
147 -18 -1 -45 -7 -59 -15z"/>
<path d="M2863 3488 c-224 -245 -394 -438 -582 -664 -180 -215 -455 -564 -449
-568 14 -11 293 -84 299 -79 4 5 90 113 193 241 285 357 498 600 827 943 l179
186 -148 42 c-81 23 -154 44 -163 47 -11 3 -60 -44 -156 -148z"/>
<path d="M3349 3398 c-31 -29 -87 -85 -124 -125 l-67 -71 36 -204 c38 -212
106 -674 127 -863 6 -60 14 -113 18 -116 7 -8 278 15 287 24 19 19 -179 1303
-214 1390 -6 16 -15 11 -63 -35z"/>
<path d="M1740 2954 c-434 -59 -673 -197 -673 -389 0 -134 127 -267 373 -390
679 -340 1996 -471 2650 -263 193 61 311 147 345 249 53 159 -71 317 -364 463
-51 26 -95 46 -96 44 -6 -6 -46 -101 -43 -102 2 -1 28 -13 58 -26 68 -31 216
-123 254 -158 97 -90 112 -163 49 -233 -81 -90 -277 -157 -583 -201 -148 -21
-772 -17 -965 5 -659 78 -1196 243 -1454 447 -62 49 -111 122 -111 164 0 119
229 230 568 276 l92 13 -1 41 c-1 73 -2 74 -99 60z"/>
<path d="M1472 1743 c-82 -126 -172 -268 -199 -318 l-50 -90 -17 -255 c-10
-140 -19 -266 -22 -280 -5 -22 -4 -23 9 -10 7 8 53 80 102 160 115 188 340
529 494 749 68 95 119 177 114 181 -7 6 -263 90 -276 90 -2 0 -72 -102 -155
-227z"/>
<path d="M3550 1723 c-25 -1 -77 -5 -115 -9 l-70 -5 11 -152 c28 -365 37 -569
43 -984 l6 -442 135 257 135 257 0 330 c0 290 -16 646 -31 728 -6 29 -1 28
-114 20z"/>
</g>
</svg>
